# xmcd
#
# Track frame offsets: 
#        150
#        18550
#        39055
#        61256
#        82372
#        101237
#        123557
#        141206
#        160377
#        178081
#        196918
#        211360
#        233447
#        237580
#        257484
#        275094
#        298844
#        300810
#
# Disc length: 4056 seconds
#
# Revision: 13
# Processed by: cddbd v1.5.2PL0 Copyright (c) Steve Scherf et al.
# Submitted via: ExactAudioCopyFreeDBPlugin 1.0
#
DISCID=060fd612
DTITLE=Brad Paisley - 5th Gear
DYEAR=2007
DGENRE=Country
TTITLE0=All I Wanted Was a Car
TTITLE1=Ticks
TTITLE2=Online
TTITLE3=Letter to Me
TTITLE4=I'm Still a Guy
TTITLE5=Some Mistakes
TTITLE6=It Did
TTITLE7=Mr. Policeman
TTITLE8=If Love Was a Plane
TTITLE9=Brad Paisley, Carrie Underwood - Oh Love
TTITLE10=Better Than This
TTITLE11=With You, Without You
TTITLE12=Previously...
TTITLE13=Brad Paisley, The New Kung Pao Buckaroos, Little Jimmy Dicken
TTITLE13=s, Whisperin' Bill Anderson, Vince Gill - Bigger Fish to Fry
TTITLE14=When We All Get to Heaven
TTITLE15=Throttleneck
TTITLE16=Outtake #1
TTITLE17=Outtake #2
EXTD=
EXTT0=
EXTT1=
EXTT2=
EXTT3=
EXTT4=
EXTT5=
EXTT6=
EXTT7=
EXTT8=
EXTT9=
EXTT10=
EXTT11=
EXTT12=
EXTT13=
EXTT14=
EXTT15=
EXTT16=
EXTT17=
PLAYORDER=
